<svg xmlns="http://www.w3.org/2000/svg" viewBox="0 0 48 48"><defs><style>.cls-2{fill:#fff}.cls-3{fill:#256494}</style></defs><g id="_11-Puzzle_Game" data-name="11-Puzzle Game"><rect x="1" y="1" width="46" height="46" rx="4" ry="4" style="fill:#65b1fc"/><circle class="cls-2" cx="38" cy="10" r="3"/><circle class="cls-2" cx="24" cy="24" r="3"/><circle class="cls-2" cx="10" cy="38" r="3"/><path class="cls-2" d="M39 41h4v5h-4zM43 20v21h-4V20l2-3 2 3z"/><path class="cls-3" d="M43 0H5a5.006 5.006 0 0 0-5 5v38a5.006 5.006 0 0 0 5 5h31v-2H5a3 3 0 0 1-3-3V5a3 3 0 0 1 3-3h38a3 3 0 0 1 3 3v18h2V5a5.006 5.006 0 0 0-5-5z"/><path class="cls-3" d="M32 5h-2v11H18V5h-2v11H5v2h11v12H5v2h11v11h2V32h12v11h2V32h4v-2h-4V18h5v-2h-5zm-2 25H18V18h12z"/><path class="cls-3" d="M38 6a4 4 0 0 0 0 8v-2a2 2 0 1 1 2-2h2a4 4 0 0 0-4-4zM6.707 13.707 9.5 10.914l2.793 2.793 1.414-1.414L10.914 9.5l2.793-2.793-1.414-1.414L9.5 8.086 6.707 5.293 5.293 6.707 8.086 9.5l-2.793 2.793 1.414 1.414zM21.707 14.707l2.793-2.793 2.793 2.793 1.414-1.414-2.793-2.793 2.793-2.793-1.414-1.414L24.5 9.086l-2.793-2.793-1.414 1.414 2.793 2.793-2.793 2.793 1.414 1.414zM6 38a4 4 0 1 0 4-4 4 4 0 0 0-4 4zm6 0a2 2 0 1 1-2-2 2 2 0 0 1 2 2zM24 28a4 4 0 1 0-4-4 4 4 0 0 0 4 4zm0-6a2 2 0 1 1-2 2 2 2 0 0 1 2-2zM46 43h-2V20a1.006 1.006 0 0 0-.168-.555l-2-3a1.039 1.039 0 0 0-1.664 0l-2 3A1.006 1.006 0 0 0 38 20v26a1 1 0 0 0 1 1h4a1 1 0 0 0 1-1v-1h3a1 1 0 0 0 1-1V32h-2zm-5-24.2 1 1.5V40h-2V20.3zM40 45v-3h2v3z"/><path class="cls-3" d="M40 12h2v2h-2z"/></g></svg>